<svg xmlns="http://www.w3.org/2000/svg" xmlns:xlink="http://www.w3.org/1999/xlink" width="1563" zoomAndPan="magnify" viewBox="0 0 1172.25 1172.249948" height="1563" preserveAspectRatio="xMidYMid meet" version="1.0"><defs><filter x="0%" y="0%" width="100%" height="100%" id="5d362210f1"><feColorMatrix values="0 0 0 0 1 0 0 0 0 1 0 0 0 0 1 0 0 0 1 0" color-interpolation-filters="sRGB"></feColorMatrix></filter><filter x="0%" y="0%" width="100%" height="100%" id="82a9423a32"><feColorMatrix values="0 0 0 0 1 0 0 0 0 1 0 0 0 0 1 0.2126 0.7152 0.0722 0 0" color-interpolation-filters="sRGB"></feColorMatrix></filter><clipPath id="79269b3e06"><path d="M 98.5625 98.5625 L 1072.9375 98.5625 L 1072.9375 1072.9375 L 98.5625 1072.9375 Z M 98.5625 98.5625 " clip-rule="nonzero"></path></clipPath><mask id="fb3c424a1d"><g filter="url(#5d362210f1)"><g filter="url(#82a9423a32)" transform="matrix(1.389248, 0, 0, 1.389248, -110.189764, -84.173271)"><image x="0" y="0" width="1024" height="1024" preserveAspectRatio="xMidYMid meet"></image></g></g></mask><clipPath id="0498a53729"><path d="M 0 971 L 118 971 L 118 1171.5 L 0 1171.5 Z M 0 971 " clip-rule="nonzero"></path></clipPath><clipPath id="bfa49cd1ab"><path d="M 0 1 L 116 1 L 116 200.5 L 0 200.5 Z M 0 1 " clip-rule="nonzero"></path></clipPath><mask id="602374fc17"><g filter="url(#5d362210f1)"><g filter="url(#82a9423a32)" transform="matrix(0.239847, 0, 0, 0.239847, -0.239821, 0.858106)"><image x="0" y="0" width="486" height="834" preserveAspectRatio="xMidYMid meet"></image></g></g></mask><clipPath id="a02b154571"><rect x="0" width="118" y="0" height="201"></rect></clipPath></defs><g clip-path="url(#79269b3e06)"><g mask="url(#fb3c424a1d)"><g transform="matrix(1.389248, 0, 0, 1.389248, -110.189764, -84.173271)"><image x="0" y="0" width="1024" height="1024" preserveAspectRatio="xMidYMid meet"></image></g></g></g><g clip-path="url(#0498a53729)"><g transform="matrix(1, 0, 0, 1, 0, 971)"><g clip-path="url(#a02b154571)"><g clip-path="url(#bfa49cd1ab)"><g mask="url(#602374fc17)"><g transform="matrix(0.239847, 0, 0, 0.239847, -0.239821, 0.858106)"><image x="0" y="0" width="486" height="834" preserveAspectRatio="xMidYMid meet"></image></g></g></g></g></g></g></svg>